<?xml version="1.0" encoding="UTF-8" standalone="no"?>
<svg
   xmlns:dc="http://purl.org/dc/elements/1.1/"
   xmlns:cc="http://creativecommons.org/ns#"
   xmlns:rdf="http://www.w3.org/1999/02/22-rdf-syntax-ns#"
   xmlns:svg="http://www.w3.org/2000/svg"
   xmlns="http://www.w3.org/2000/svg"
   xmlns:sodipodi="http://sodipodi.sourceforge.net/DTD/sodipodi-0.dtd"
   xmlns:inkscape="http://www.inkscape.org/namespaces/inkscape"
   height="640"
   width="1280"
   inkscape:version="1.0rc1 (09960d6f05, 2020-04-09)"
   sodipodi:docname="metapandas_social.svg"
   xml:space="preserve"
   viewBox="0 0 1280 640.00001"
   y="0px"
   x="0px"
   id="Layer_1"
   version="1.1"><title
   id="title5688">MetaPandas</title><metadata
   id="metadata4706"><rdf:RDF><cc:Work
       rdf:about=""><dc:format>image/svg+xml</dc:format><dc:type
         rdf:resource="http://purl.org/dc/dcmitype/StillImage" /><dc:title>MetaPandas</dc:title><cc:license
         rdf:resource="http://creativecommons.org/publicdomain/zero/1.0/" /></cc:Work><cc:License
       rdf:about="http://creativecommons.org/publicdomain/zero/1.0/"><cc:permits
         rdf:resource="http://creativecommons.org/ns#Reproduction" /><cc:permits
         rdf:resource="http://creativecommons.org/ns#Distribution" /><cc:permits
         rdf:resource="http://creativecommons.org/ns#DerivativeWorks" /></cc:License></rdf:RDF></metadata><defs
   id="defs4704" /><sodipodi:namedview
   inkscape:document-rotation="0"
   fit-margin-bottom="0"
   fit-margin-right="0"
   fit-margin-left="0"
   fit-margin-top="0"
   inkscape:current-layer="Layer_1"
   inkscape:window-maximized="1"
   inkscape:window-y="-6"
   inkscape:window-x="-6"
   inkscape:cy="271.08307"
   inkscape:cx="732.82291"
   inkscape:zoom="0.83671875"
   inkscape:snap-page="true"
   inkscape:snap-text-baseline="true"
   showgrid="false"
   id="namedview4702"
   inkscape:window-height="1018"
   inkscape:window-width="1620"
   inkscape:pageshadow="2"
   inkscape:pageopacity="0"
   guidetolerance="10"
   gridtolerance="10"
   objecttolerance="10"
   borderopacity="1"
   bordercolor="#666666"
   pagecolor="#ffffff" />





























<g
   transform="matrix(1.6048963,0,0,1.6048963,0,-387.13363)"
   id="g116"><polygon
     style="fill:#87b6c1"
     points="106.4,242.8 26.4,126.8 106.4,82.8 187.2,162.8 "
     id="polygon4549"
     transform="translate(-26.4,157.36949)"
     inkscape:export-xdpi="149.92459"
     inkscape:export-ydpi="149.92459" /><polygon
     style="fill:#61a1aa"
     points="106.4,242.8 26.4,126.8 106.4,173.2 187.2,162.8 "
     id="polygon4551"
     transform="translate(-26.4,157.36949)"
     inkscape:export-xdpi="149.92459"
     inkscape:export-ydpi="149.92459" /><polygon
     style="fill:#87b6c1"
     points="389.6,242.8 469.6,126.8 389.6,82.8 308.8,162.8 "
     id="polygon4553"
     transform="translate(-41.111864,158.42034)"
     inkscape:export-xdpi="149.92459"
     inkscape:export-ydpi="149.92459" /><polygon
     style="fill:#61a1aa"
     points="389.6,242.8 469.6,126.8 389.6,173.2 308.8,162.8 "
     id="polygon4555"
     transform="translate(-121.11186,114.42034)"
     inkscape:export-xdpi="149.92459"
     inkscape:export-ydpi="149.92459" /><polygon
     style="fill:#bdd5db"
     points="400.8,50.8 392,274.8 248,382.8 104,274.8 95.2,50.8 248,6 "
     id="polygon4557"
     transform="translate(-31.654237,257.2)"
     inkscape:export-xdpi="149.92459"
     inkscape:export-ydpi="149.92459" /><polygon
     style="fill:#9bcbd3"
     points="400.8,50.8 392,274.8 248,382.8 104,274.8 95.2,50.8 248,6 "
     id="polygon4559"
     transform="translate(-31.654237,257.2)"
     inkscape:export-xdpi="149.92459"
     inkscape:export-ydpi="149.92459" /><polyline
     style="fill:#bdd5db"
     points="95.2,50.8 104,274.8 248,382.8 379.2,271.6 400.8,50.8 400,50 392,246.8 248,354 124,261.2   "
     id="polyline4561"
     transform="translate(-31.654237,257.2)"
     inkscape:export-xdpi="149.92459"
     inkscape:export-ydpi="149.92459" /><polygon
     style="fill:#87b6c1"
     points="400.8,50.8 392,274.8 248,382.8 200.8,173.2 95.2,50.8 248,6 "
     id="polygon4563"
     transform="translate(-31.654237,257.2)"
     inkscape:export-xdpi="149.92459"
     inkscape:export-ydpi="149.92459" /><polyline
     style="fill:#6293a0"
     points="248,6 400.8,50.8 392,274.8 248,382.8 "
     id="polyline4565"
     transform="translate(-31.654237,257.2)"
     inkscape:export-xdpi="149.92459"
     inkscape:export-ydpi="149.92459" /><polyline
     style="fill:#87b6c1"
     points="248,382.8 200.8,173.2 95.2,50.8 248,6 "
     id="polyline4567"
     transform="translate(-31.654237,257.2)"
     inkscape:export-xdpi="149.92459"
     inkscape:export-ydpi="149.92459" /><g
     id="g4573"
     transform="translate(-31.654237,257.2)"
     inkscape:export-xdpi="149.92459"
     inkscape:export-ydpi="149.92459">
	<polyline
   style="fill:#61a1aa"
   points="248,382.8 296,173.2 400.8,50.8 248,6  "
   id="polyline4569" />
	<path
   style="fill:#61a1aa"
   d="m 200.8,175.6 c -3.2,4.8 -19.2,13.6 -44,4.8 -19.2,-6.4 -16.8,-28 -18.4,-41.6 -0.8,-5.6 -6.4,-31.2 10.4,-21.6 16.8,11.2 54.4,53.6 52,58.4 z"
   id="path4571"
   inkscape:connector-curvature="0" />
</g><path
     style="fill:#00fff2"
     d="m 169.14576,432.8 c -3.2,4.8 -18.4,-0.8 -43.2,-8.8 -19.2,-6.4 -17.6,-13.6 -19.2,-27.2 -0.8,-5.6 0.8,-21.6 18.4,-12 16.8,10.4 46.4,43.2 44,48 z"
     id="path4575"
     inkscape:connector-curvature="0"
     inkscape:export-xdpi="149.92459"
     inkscape:export-ydpi="149.92459" /><path
     style="fill:#00e2e2"
     d="m 169.14576,432.8 c -3.2,4.8 -18.4,-0.8 -43.2,-8.8 -19.2,-6.4 -17.6,-13.6 -19.2,-27.2"
     id="path4577"
     inkscape:connector-curvature="0"
     inkscape:export-xdpi="149.92459"
     inkscape:export-ydpi="149.92459" /><ellipse
     style="fill:#02bdc6"
     cx="136.34576"
     cy="410.39999"
     rx="5.5999999"
     ry="13.6"
     id="ellipse4579"
     inkscape:export-xdpi="149.92459"
     inkscape:export-ydpi="149.92459" /><path
     style="fill:#049da5"
     d="m 136.34576,396.8 c 3.2,0 5.6,6.4 5.6,13.6 0,7.2 -2.4,13.6 -5.6,13.6"
     id="path4581"
     inkscape:connector-curvature="0"
     inkscape:export-xdpi="149.92459"
     inkscape:export-ydpi="149.92459" /><g
     id="g4587"
     transform="translate(-31.654237,257.2)"
     inkscape:export-xdpi="149.92459"
     inkscape:export-ydpi="149.92459">
	<circle
   style="fill:#00fff2"
   cx="168"
   cy="147.60001"
   r="3.2"
   id="circle4583" />
	<circle
   style="fill:#00fff2"
   cx="168"
   cy="162.8"
   r="1.6"
   id="circle4585" />
</g><path
     style="fill:#87b6c1"
     d="m 263.54576,432.8 c 3.2,4.8 19.2,13.6 44,4.8 19.2,-6.4 16.8,-28 18.4,-41.6 0.8,-5.6 6.4,-31.2 -10.4,-21.6 -16.8,11.2 -54.4,53.6 -52,58.4 z"
     id="path4589"
     inkscape:connector-curvature="0"
     inkscape:export-xdpi="149.92459"
     inkscape:export-ydpi="149.92459" /><path
     style="fill:#00fff2"
     d="m 263.54576,432.8 c 3.2,4.8 18.4,-0.8 43.2,-8.8 19.2,-6.4 17.6,-13.6 19.2,-27.2 0.8,-5.6 -0.8,-21.6 -18.4,-12 -16.8,10.4 -46.4,43.2 -44,48 z"
     id="path4591"
     inkscape:connector-curvature="0"
     inkscape:export-xdpi="149.92459"
     inkscape:export-ydpi="149.92459" /><path
     style="fill:#00e2e2"
     d="m 263.54576,432.8 c 3.2,4.8 18.4,-0.8 43.2,-8.8 19.2,-6.4 17.6,-13.6 19.2,-27.2"
     id="path4593"
     inkscape:connector-curvature="0"
     inkscape:export-xdpi="149.92459"
     inkscape:export-ydpi="149.92459" /><ellipse
     style="fill:#02bdc6"
     cx="296.34576"
     cy="410.39999"
     rx="5.5999999"
     ry="13.6"
     id="ellipse4595"
     inkscape:export-xdpi="149.92459"
     inkscape:export-ydpi="149.92459" /><path
     style="fill:#049da5"
     d="m 296.34576,396.8 c -3.2,0 -5.6,6.4 -5.6,13.6 0,7.2 2.4,13.6 5.6,13.6"
     id="path4597"
     inkscape:connector-curvature="0"
     inkscape:export-xdpi="149.92459"
     inkscape:export-ydpi="149.92459" /><g
     id="g4603"
     transform="translate(-31.654237,257.2)"
     inkscape:export-xdpi="149.92459"
     inkscape:export-ydpi="149.92459">
	<circle
   style="fill:#00fff2"
   cx="328"
   cy="147.60001"
   r="3.2"
   id="circle4599" />
	<circle
   style="fill:#00fff2"
   cx="328"
   cy="162.8"
   r="1.6"
   id="circle4601" />
</g><g
     id="g4617"
     transform="translate(-31.654237,257.2)"
     inkscape:export-xdpi="149.92459"
     inkscape:export-ydpi="149.92459">
	<polygon
   style="fill:#87b6c1"
   points="168,207.6 130.4,183.6 168,220.4 "
   id="polygon4605" />
	<polygon
   style="fill:#87b6c1"
   points="168,224.4 130.4,200.4 168,238 "
   id="polygon4607" />
	<polygon
   style="fill:#87b6c1"
   points="168,242 130.4,217.2 168,254.8 "
   id="polygon4609" />
	<polygon
   style="fill:#87b6c1"
   points="328,207.6 365.6,183.6 328,220.4 "
   id="polygon4611" />
	<polygon
   style="fill:#87b6c1"
   points="328,224.4 365.6,200.4 328,238 "
   id="polygon4613" />
	<polygon
   style="fill:#87b6c1"
   points="328,242 365.6,217.2 328,254.8 "
   id="polygon4615" />
</g><polygon
     style="fill:#99fff7"
     points="265.6,219.6 248,284.4 230.4,219.6 248,202 "
     id="polygon4619"
     transform="translate(-31.654237,257.2)"
     inkscape:export-xdpi="149.92459"
     inkscape:export-ydpi="149.92459" /><polyline
     style="fill:#00fff2"
     points="248,202 265.6,219.6 248,284.4 "
     id="polyline4621"
     transform="translate(-31.654237,257.2)"
     inkscape:export-xdpi="149.92459"
     inkscape:export-ydpi="149.92459" /><polyline
     style="fill:#00e2e2"
     points="230.4,219.6 248,202 265.6,219.6 "
     id="polyline4623"
     transform="translate(-31.654237,257.2)"
     inkscape:export-xdpi="149.92459"
     inkscape:export-ydpi="149.92459" /><g
     id="g4631"
     transform="translate(-31.654237,257.2)"
     inkscape:export-xdpi="149.92459"
     inkscape:export-ydpi="149.92459">
	
		<rect
   x="243.483"
   y="126.679"
   transform="matrix(-0.7071,0.7071,-0.7071,-0.7071,516.8148,48.8871)"
   style="fill:#00fff2"
   width="9.6000004"
   height="9.6000004"
   id="rect4625" />
	
		<rect
   x="243.239"
   y="86.794998"
   transform="matrix(-0.7071,0.7071,-0.7071,-0.7071,488.196,-19.0266)"
   style="fill:#00fff2"
   width="9.6000004"
   height="9.6000004"
   id="rect4627" />
	
		<rect
   x="242.995"
   y="46.887001"
   transform="matrix(-0.7071,0.7071,-0.7071,-0.7071,459.5602,-86.9813)"
   style="fill:#00fff2"
   width="9.6000004"
   height="9.6000004"
   id="rect4629" />
</g><polygon
     style="fill:#9fd1d6"
     points="224,25.2 139.2,78.8 119.2,56.4 "
     id="polygon4633"
     transform="translate(-31.654237,257.2)"
     inkscape:export-xdpi="149.92459"
     inkscape:export-ydpi="149.92459" /></g>






<g
   transform="translate(-31.654237,198.35255)"
   inkscape:export-ydpi="149.92459"
   inkscape:export-xdpi="149.92459"
   id="g4671">
</g>
<g
   transform="translate(-31.654237,198.35255)"
   inkscape:export-ydpi="149.92459"
   inkscape:export-xdpi="149.92459"
   id="g4673">
</g>
<g
   transform="translate(-31.654237,198.35255)"
   inkscape:export-ydpi="149.92459"
   inkscape:export-xdpi="149.92459"
   id="g4675">
</g>
<g
   transform="translate(-31.654237,198.35255)"
   inkscape:export-ydpi="149.92459"
   inkscape:export-xdpi="149.92459"
   id="g4677">
</g>
<g
   transform="translate(-31.654237,198.35255)"
   inkscape:export-ydpi="149.92459"
   inkscape:export-xdpi="149.92459"
   id="g4679">
</g>
<g
   transform="translate(-31.654237,198.35255)"
   inkscape:export-ydpi="149.92459"
   inkscape:export-xdpi="149.92459"
   id="g4681">
</g>
<g
   transform="translate(-31.654237,198.35255)"
   inkscape:export-ydpi="149.92459"
   inkscape:export-xdpi="149.92459"
   id="g4683">
</g>
<g
   transform="translate(-31.654237,198.35255)"
   inkscape:export-ydpi="149.92459"
   inkscape:export-xdpi="149.92459"
   id="g4685">
</g>
<g
   transform="translate(-31.654237,198.35255)"
   inkscape:export-ydpi="149.92459"
   inkscape:export-xdpi="149.92459"
   id="g4687">
</g>
<g
   transform="translate(-31.654237,198.35255)"
   inkscape:export-ydpi="149.92459"
   inkscape:export-xdpi="149.92459"
   id="g4689">
</g>
<g
   transform="translate(-31.654237,198.35255)"
   inkscape:export-ydpi="149.92459"
   inkscape:export-xdpi="149.92459"
   id="g4691">
</g>
<g
   transform="translate(-31.654237,198.35255)"
   inkscape:export-ydpi="149.92459"
   inkscape:export-xdpi="149.92459"
   id="g4693">
</g>
<g
   transform="translate(-31.654237,198.35255)"
   inkscape:export-ydpi="149.92459"
   inkscape:export-xdpi="149.92459"
   id="g4695">
</g>
<g
   transform="translate(-31.654237,198.35255)"
   inkscape:export-ydpi="149.92459"
   inkscape:export-xdpi="149.92459"
   id="g4697">
</g>
<g
   transform="translate(-31.654237,198.35255)"
   inkscape:export-ydpi="149.92459"
   inkscape:export-xdpi="149.92459"
   id="g4699">
</g>
<text
   id="text76"
   y="283.29626"
   x="947.35437"
   style="font-size:192px;line-height:0.85;font-family:'Chintzy CPU (BRK)';-inkscape-font-specification:'Chintzy CPU (BRK)';letter-spacing:0px;word-spacing:0px;fill:#03bbbd;fill-opacity:1;"
   xml:space="preserve"><tspan
     style="text-align:center;text-anchor:middle;fill:#03bbbd;fill-opacity:1;"
     y="283.29626"
     x="947.35437"
     id="tspan74"
     sodipodi:role="line">Meta</tspan><tspan
     style="text-align:center;text-anchor:middle;fill:#03bbbd;fill-opacity:1;"
     id="tspan78"
     y="446.49628"
     x="947.35437"
     sodipodi:role="line" /></text><text
   id="text82"
   y="436.22784"
   x="629.84125"
   style="font-size:192px;line-height:1.25;font-family:'Chintzy CPU (BRK)';-inkscape-font-specification:'Chintzy CPU (BRK)';letter-spacing:0px;word-spacing:0px;fill:#049ea7;fill-opacity:1;"
   xml:space="preserve"><tspan
     y="436.22784"
     x="629.84125"
     id="tspan80"
     sodipodi:role="line">Pandas</tspan></text></svg>
