<?xml version="1.0" encoding="UTF-8" standalone="no"?>
<!-- Generator: Adobe Illustrator 19.0.0, SVG Export Plug-In . SVG Version: 6.00 Build 0)  -->

<svg
   xmlns:dc="http://purl.org/dc/elements/1.1/"
   xmlns:cc="http://creativecommons.org/ns#"
   xmlns:rdf="http://www.w3.org/1999/02/22-rdf-syntax-ns#"
   xmlns:svg="http://www.w3.org/2000/svg"
   xmlns="http://www.w3.org/2000/svg"
   xmlns:sodipodi="http://sodipodi.sourceforge.net/DTD/sodipodi-0.dtd"
   xmlns:inkscape="http://www.inkscape.org/namespaces/inkscape"
   version="1.1"
   id="Layer_1"
   x="0px"
   y="0px"
   viewBox="0 0 428.48813 399.83051"
   xml:space="preserve"
   sodipodi:docname="metapandas.svg"
   inkscape:version="0.92.4 (5da689c313, 2019-01-14)"
   width="428.48813"
   height="399.83051"><title
   id="title5688">MetaPandas</title><metadata
   id="metadata4706"><rdf:RDF><cc:Work
       rdf:about=""><dc:format>image/svg+xml</dc:format><dc:type
         rdf:resource="http://purl.org/dc/dcmitype/StillImage" /><dc:title>MetaPandas</dc:title><cc:license
         rdf:resource="http://creativecommons.org/publicdomain/zero/1.0/" /></cc:Work><cc:License
       rdf:about="http://creativecommons.org/publicdomain/zero/1.0/"><cc:permits
         rdf:resource="http://creativecommons.org/ns#Reproduction" /><cc:permits
         rdf:resource="http://creativecommons.org/ns#Distribution" /><cc:permits
         rdf:resource="http://creativecommons.org/ns#DerivativeWorks" /></cc:License></rdf:RDF></metadata><defs
   id="defs4704" /><sodipodi:namedview
   pagecolor="#ffffff"
   bordercolor="#666666"
   borderopacity="1"
   objecttolerance="10"
   gridtolerance="10"
   guidetolerance="10"
   inkscape:pageopacity="0"
   inkscape:pageshadow="2"
   inkscape:window-width="3240"
   inkscape:window-height="2035"
   id="namedview4702"
   showgrid="false"
   inkscape:snap-text-baseline="true"
   inkscape:snap-page="true"
   inkscape:zoom="0.9516129"
   inkscape:cx="112.13879"
   inkscape:cy="174.48217"
   inkscape:window-x="-13"
   inkscape:window-y="-13"
   inkscape:window-maximized="1"
   inkscape:current-layer="Layer_1"
   fit-margin-top="0"
   fit-margin-left="0"
   fit-margin-right="0"
   fit-margin-bottom="0" />


<polygon
   style="fill:#87b6c1"
   points="187.2,162.8 106.4,242.8 26.4,126.8 106.4,82.8 "
   id="polygon4549"
   transform="translate(-26.4,-82.8)"
   inkscape:export-xdpi="149.92459"
   inkscape:export-ydpi="149.92459" />
<polygon
   style="fill:#61a1aa"
   points="187.2,162.8 106.4,242.8 26.4,126.8 106.4,173.2 "
   id="polygon4551"
   transform="translate(-26.4,-82.8)"
   inkscape:export-xdpi="149.92459"
   inkscape:export-ydpi="149.92459" />
<polygon
   style="fill:#87b6c1"
   points="308.8,162.8 389.6,242.8 469.6,126.8 389.6,82.8 "
   id="polygon4553"
   transform="translate(-41.111864,-81.749152)"
   inkscape:export-xdpi="149.92459"
   inkscape:export-ydpi="149.92459" />
<polygon
   style="fill:#61a1aa"
   points="308.8,162.8 389.6,242.8 469.6,126.8 389.6,173.2 "
   id="polygon4555"
   transform="translate(-121.11186,-125.74915)"
   inkscape:export-xdpi="149.92459"
   inkscape:export-ydpi="149.92459" />
<polygon
   style="fill:#bdd5db"
   points="392,274.8 248,382.8 104,274.8 95.2,50.8 248,6 400.8,50.8 "
   id="polygon4557"
   transform="translate(-31.654237,17.030509)"
   inkscape:export-xdpi="149.92459"
   inkscape:export-ydpi="149.92459" />
<polygon
   style="fill:#9bcbd3"
   points="392,274.8 248,382.8 104,274.8 95.2,50.8 248,6 400.8,50.8 "
   id="polygon4559"
   transform="translate(-31.654237,17.030509)"
   inkscape:export-xdpi="149.92459"
   inkscape:export-ydpi="149.92459" />
<polyline
   style="fill:#bdd5db"
   points="95.2,50.8 104,274.8 248,382.8 379.2,271.6 400.8,50.8 400,50 392,246.8 248,354 124,261.2   "
   id="polyline4561"
   transform="translate(-31.654237,17.030509)"
   inkscape:export-xdpi="149.92459"
   inkscape:export-ydpi="149.92459" />
<polygon
   style="fill:#87b6c1"
   points="392,274.8 248,382.8 200.8,173.2 95.2,50.8 248,6 400.8,50.8 "
   id="polygon4563"
   transform="translate(-31.654237,17.030509)"
   inkscape:export-xdpi="149.92459"
   inkscape:export-ydpi="149.92459" />
<polyline
   style="fill:#6293a0"
   points="248,6 400.8,50.8 392,274.8 248,382.8 "
   id="polyline4565"
   transform="translate(-31.654237,17.030509)"
   inkscape:export-xdpi="149.92459"
   inkscape:export-ydpi="149.92459" />
<polyline
   style="fill:#87b6c1"
   points="248,382.8 200.8,173.2 95.2,50.8 248,6 "
   id="polyline4567"
   transform="translate(-31.654237,17.030509)"
   inkscape:export-xdpi="149.92459"
   inkscape:export-ydpi="149.92459" />
<g
   id="g4573"
   transform="translate(-31.654237,17.030509)"
   inkscape:export-xdpi="149.92459"
   inkscape:export-ydpi="149.92459">
	<polyline
   style="fill:#61a1aa"
   points="248,382.8 296,173.2 400.8,50.8 248,6  "
   id="polyline4569" />
	<path
   style="fill:#61a1aa"
   d="m 200.8,175.6 c -3.2,4.8 -19.2,13.6 -44,4.8 -19.2,-6.4 -16.8,-28 -18.4,-41.6 -0.8,-5.6 -6.4,-31.2 10.4,-21.6 16.8,11.2 54.4,53.6 52,58.4 z"
   id="path4571"
   inkscape:connector-curvature="0" />
</g>
<path
   style="fill:#00fff2"
   d="m 169.14576,192.63051 c -3.2,4.8 -18.4,-0.8 -43.2,-8.8 -19.2,-6.4 -17.6,-13.6 -19.2,-27.2 -0.8,-5.6 0.8,-21.6 18.4,-12 16.8,10.4 46.4,43.2 44,48 z"
   id="path4575"
   inkscape:connector-curvature="0"
   inkscape:export-xdpi="149.92459"
   inkscape:export-ydpi="149.92459" />
<path
   style="fill:#00e2e2"
   d="m 169.14576,192.63051 c -3.2,4.8 -18.4,-0.8 -43.2,-8.8 -19.2,-6.4 -17.6,-13.6 -19.2,-27.2"
   id="path4577"
   inkscape:connector-curvature="0"
   inkscape:export-xdpi="149.92459"
   inkscape:export-ydpi="149.92459" />
<ellipse
   style="fill:#02bdc6"
   cx="136.34576"
   cy="170.2305"
   rx="5.5999999"
   ry="13.6"
   id="ellipse4579"
   inkscape:export-xdpi="149.92459"
   inkscape:export-ydpi="149.92459" />
<path
   style="fill:#049da5"
   d="m 136.34576,156.63051 c 3.2,0 5.6,6.4 5.6,13.6 0,7.2 -2.4,13.6 -5.6,13.6"
   id="path4581"
   inkscape:connector-curvature="0"
   inkscape:export-xdpi="149.92459"
   inkscape:export-ydpi="149.92459" />
<g
   id="g4587"
   transform="translate(-31.654237,17.030509)"
   inkscape:export-xdpi="149.92459"
   inkscape:export-ydpi="149.92459">
	<circle
   style="fill:#00fff2"
   cx="168"
   cy="147.60001"
   r="3.2"
   id="circle4583" />
	<circle
   style="fill:#00fff2"
   cx="168"
   cy="162.8"
   r="1.6"
   id="circle4585" />
</g>
<path
   style="fill:#87b6c1"
   d="m 263.54576,192.63051 c 3.2,4.8 19.2,13.6 44,4.8 19.2,-6.4 16.8,-28 18.4,-41.6 0.8,-5.6 6.4,-31.2 -10.4,-21.6 -16.8,11.2 -54.4,53.6 -52,58.4 z"
   id="path4589"
   inkscape:connector-curvature="0"
   inkscape:export-xdpi="149.92459"
   inkscape:export-ydpi="149.92459" />
<path
   style="fill:#00fff2"
   d="m 263.54576,192.63051 c 3.2,4.8 18.4,-0.8 43.2,-8.8 19.2,-6.4 17.6,-13.6 19.2,-27.2 0.8,-5.6 -0.8,-21.6 -18.4,-12 -16.8,10.4 -46.4,43.2 -44,48 z"
   id="path4591"
   inkscape:connector-curvature="0"
   inkscape:export-xdpi="149.92459"
   inkscape:export-ydpi="149.92459" />
<path
   style="fill:#00e2e2"
   d="m 263.54576,192.63051 c 3.2,4.8 18.4,-0.8 43.2,-8.8 19.2,-6.4 17.6,-13.6 19.2,-27.2"
   id="path4593"
   inkscape:connector-curvature="0"
   inkscape:export-xdpi="149.92459"
   inkscape:export-ydpi="149.92459" />
<ellipse
   style="fill:#02bdc6"
   cx="296.34576"
   cy="170.2305"
   rx="5.5999999"
   ry="13.6"
   id="ellipse4595"
   inkscape:export-xdpi="149.92459"
   inkscape:export-ydpi="149.92459" />
<path
   style="fill:#049da5"
   d="m 296.34576,156.63051 c -3.2,0 -5.6,6.4 -5.6,13.6 0,7.2 2.4,13.6 5.6,13.6"
   id="path4597"
   inkscape:connector-curvature="0"
   inkscape:export-xdpi="149.92459"
   inkscape:export-ydpi="149.92459" />
<g
   id="g4603"
   transform="translate(-31.654237,17.030509)"
   inkscape:export-xdpi="149.92459"
   inkscape:export-ydpi="149.92459">
	<circle
   style="fill:#00fff2"
   cx="328"
   cy="147.60001"
   r="3.2"
   id="circle4599" />
	<circle
   style="fill:#00fff2"
   cx="328"
   cy="162.8"
   r="1.6"
   id="circle4601" />
</g>
<g
   id="g4617"
   transform="translate(-31.654237,17.030509)"
   inkscape:export-xdpi="149.92459"
   inkscape:export-ydpi="149.92459">
	<polygon
   style="fill:#87b6c1"
   points="130.4,183.6 168,220.4 168,207.6 "
   id="polygon4605" />
	<polygon
   style="fill:#87b6c1"
   points="130.4,200.4 168,238 168,224.4 "
   id="polygon4607" />
	<polygon
   style="fill:#87b6c1"
   points="130.4,217.2 168,254.8 168,242 "
   id="polygon4609" />
	<polygon
   style="fill:#87b6c1"
   points="365.6,183.6 328,220.4 328,207.6 "
   id="polygon4611" />
	<polygon
   style="fill:#87b6c1"
   points="365.6,200.4 328,238 328,224.4 "
   id="polygon4613" />
	<polygon
   style="fill:#87b6c1"
   points="365.6,217.2 328,254.8 328,242 "
   id="polygon4615" />
</g>
<polygon
   style="fill:#99fff7"
   points="248,202 265.6,219.6 248,284.4 230.4,219.6 "
   id="polygon4619"
   transform="translate(-31.654237,17.030509)"
   inkscape:export-xdpi="149.92459"
   inkscape:export-ydpi="149.92459" />
<polyline
   style="fill:#00fff2"
   points="248,202 265.6,219.6 248,284.4 "
   id="polyline4621"
   transform="translate(-31.654237,17.030509)"
   inkscape:export-xdpi="149.92459"
   inkscape:export-ydpi="149.92459" />
<polyline
   style="fill:#00e2e2"
   points="230.4,219.6 248,202 265.6,219.6 "
   id="polyline4623"
   transform="translate(-31.654237,17.030509)"
   inkscape:export-xdpi="149.92459"
   inkscape:export-ydpi="149.92459" />
<g
   id="g4631"
   transform="translate(-31.654237,17.030509)"
   inkscape:export-xdpi="149.92459"
   inkscape:export-ydpi="149.92459">
	
		<rect
   x="243.483"
   y="126.679"
   transform="matrix(-0.7071,0.7071,-0.7071,-0.7071,516.8148,48.8871)"
   style="fill:#00fff2"
   width="9.6000004"
   height="9.6000004"
   id="rect4625" />
	
		<rect
   x="243.239"
   y="86.794998"
   transform="matrix(-0.7071,0.7071,-0.7071,-0.7071,488.196,-19.0266)"
   style="fill:#00fff2"
   width="9.6000004"
   height="9.6000004"
   id="rect4627" />
	
		<rect
   x="242.995"
   y="46.887001"
   transform="matrix(-0.7071,0.7071,-0.7071,-0.7071,459.5602,-86.9813)"
   style="fill:#00fff2"
   width="9.6000004"
   height="9.6000004"
   id="rect4629" />
</g>
<polygon
   style="fill:#9fd1d6"
   points="139.2,78.8 119.2,56.4 224,25.2 "
   id="polygon4633"
   transform="translate(-31.654237,17.030509)"
   inkscape:export-xdpi="149.92459"
   inkscape:export-ydpi="149.92459" />






<g
   id="g4671"
   inkscape:export-xdpi="149.92459"
   inkscape:export-ydpi="149.92459"
   transform="translate(-31.654237,-41.816949)">
</g>
<g
   id="g4673"
   inkscape:export-xdpi="149.92459"
   inkscape:export-ydpi="149.92459"
   transform="translate(-31.654237,-41.816949)">
</g>
<g
   id="g4675"
   inkscape:export-xdpi="149.92459"
   inkscape:export-ydpi="149.92459"
   transform="translate(-31.654237,-41.816949)">
</g>
<g
   id="g4677"
   inkscape:export-xdpi="149.92459"
   inkscape:export-ydpi="149.92459"
   transform="translate(-31.654237,-41.816949)">
</g>
<g
   id="g4679"
   inkscape:export-xdpi="149.92459"
   inkscape:export-ydpi="149.92459"
   transform="translate(-31.654237,-41.816949)">
</g>
<g
   id="g4681"
   inkscape:export-xdpi="149.92459"
   inkscape:export-ydpi="149.92459"
   transform="translate(-31.654237,-41.816949)">
</g>
<g
   id="g4683"
   inkscape:export-xdpi="149.92459"
   inkscape:export-ydpi="149.92459"
   transform="translate(-31.654237,-41.816949)">
</g>
<g
   id="g4685"
   inkscape:export-xdpi="149.92459"
   inkscape:export-ydpi="149.92459"
   transform="translate(-31.654237,-41.816949)">
</g>
<g
   id="g4687"
   inkscape:export-xdpi="149.92459"
   inkscape:export-ydpi="149.92459"
   transform="translate(-31.654237,-41.816949)">
</g>
<g
   id="g4689"
   inkscape:export-xdpi="149.92459"
   inkscape:export-ydpi="149.92459"
   transform="translate(-31.654237,-41.816949)">
</g>
<g
   id="g4691"
   inkscape:export-xdpi="149.92459"
   inkscape:export-ydpi="149.92459"
   transform="translate(-31.654237,-41.816949)">
</g>
<g
   id="g4693"
   inkscape:export-xdpi="149.92459"
   inkscape:export-ydpi="149.92459"
   transform="translate(-31.654237,-41.816949)">
</g>
<g
   id="g4695"
   inkscape:export-xdpi="149.92459"
   inkscape:export-ydpi="149.92459"
   transform="translate(-31.654237,-41.816949)">
</g>
<g
   id="g4697"
   inkscape:export-xdpi="149.92459"
   inkscape:export-ydpi="149.92459"
   transform="translate(-31.654237,-41.816949)">
</g>
<g
   id="g4699"
   inkscape:export-xdpi="149.92459"
   inkscape:export-ydpi="149.92459"
   transform="translate(-31.654237,-41.816949)">
</g>
</svg>